<?xml version="1.0" encoding="UTF-8"?>
<svg version="1.1" xmlns="http://www.w3.org/2000/svg" width="314" height="295">
<path d="M0 0 C103.62 0 207.24 0 314 0 C314 97.35 314 194.7 314 295 C210.38 295 106.76 295 0 295 C0 197.65 0 100.3 0 0 Z " fill="#FCFEFE" transform="translate(0,0)"/>
<path d="M0 0 C2.5013732 0.00360402 5.00274057 0.00519742 7.50411606 0.0062561 C42.29252221 0.02447219 77.07112488 0.48862685 111.8531456 1.12857056 C112.1831456 2.11857056 112.5131456 3.10857056 112.8531456 4.12857056 C113.8431456 4.45857056 114.8331456 4.78857056 115.8531456 5.12857056 C115.8531456 6.44857056 115.8531456 7.76857056 115.8531456 9.12857056 C117.08617416 9.10500488 117.08617416 9.10500488 118.3441124 9.08096313 C122.07621988 9.01851983 125.80821732 8.9795492 129.5406456 8.94107056 C130.83421982 8.91593384 132.12779404 8.89079712 133.46056747 8.86489868 C134.70773544 8.85523071 135.95490341 8.84556274 137.23986435 8.83560181 C138.38672714 8.81989136 139.53358994 8.80418091 140.71520615 8.78799438 C144.22641381 9.16908321 146.04743464 10.0196947 148.8531456 12.12857056 C151.74864991 16.52174952 152.41192926 19.91325638 151.8531456 25.12857056 C150.01015107 30.3503884 147.64189876 32.45882833 142.8531456 35.12857056 C139.50988388 35.58267212 139.50988388 35.58267212 135.9234581 35.51919556 C134.6343956 35.50630493 133.3453331 35.49341431 132.0172081 35.48013306 C130.67084292 35.44671961 129.32448875 35.41285993 127.9781456 35.37857056 C126.60837991 35.35848412 125.23858594 35.34023711 123.8687706 35.32388306 C120.52950574 35.27685116 117.19168998 35.2111292 113.8531456 35.12857056 C113.86202805 36.21834702 113.87091049 37.30812347 113.8800621 38.43092346 C113.96163964 48.77101837 114.02134476 59.11104682 114.06039429 69.45139217 C114.08114588 74.76571651 114.10923257 80.07977818 114.15490341 85.39395142 C114.19880932 90.53575228 114.22237578 95.67730274 114.23265457 100.81927681 C114.23996654 102.76740007 114.25424132 104.7155118 114.27606583 106.66352654 C114.50309109 127.79457385 111.57829554 148.07832925 96.25548935 164.00357056 C87.33236751 171.89654337 77.8040731 175.31174329 65.9781456 175.19107056 C64.82572372 175.18204712 63.67330185 175.17302368 62.4859581 175.16372681 C61.61712997 175.15212524 60.74830185 175.14052368 59.8531456 175.12857056 C60.87904514 172.02922848 61.92012527 168.94525777 63.0406456 165.87857056 C64.57940809 158.77658982 63.89327881 153.2671654 60.1031456 147.00357056 C55.80671886 140.75743065 50.94252092 134.94326143 46.11486435 129.10513306 C43.27940652 125.66966108 40.54969383 122.17411358 37.8531456 118.62857056 C33.57132309 113.01215402 29.13880976 107.53389875 24.66735458 102.06777954 C21.34329732 97.99364853 18.09804833 93.87679237 14.9156456 89.69107056 C10.45302616 83.8375048 5.79501947 78.1644168 1.09777451 72.49819946 C-3.02638648 67.51451185 -7.05727941 62.46931412 -11.03332901 57.36709595 C-14.51530679 52.90789948 -18.06926247 48.51131724 -21.6468544 44.12857056 C-26.14892763 38.61209444 -30.5875289 33.05300532 -34.96521378 27.43740845 C-37.48047268 24.22035559 -40.02899425 21.03473446 -42.6156044 17.87466431 C-43.20277237 17.15730103 -43.78994034 16.43993774 -44.39490128 15.70083618 C-45.53387462 14.31299018 -46.67565299 12.92743982 -47.82068253 11.54458618 C-48.34081924 10.91101196 -48.86095596 10.27743774 -49.3968544 9.62466431 C-50.08521378 8.79213135 -50.08521378 8.79213135 -50.7874794 7.94277954 C-52.41830135 5.76630003 -53.77947979 3.4774889 -55.1468544 1.12857056 C-36.764851 0.02176772 -18.40673586 -0.03000036 0 0 Z " fill="#01D0C9" transform="translate(158.14685440063477,100.87142944335938)"/>
<path d="M0 0 C1.60488281 -0.00580078 1.60488281 -0.00580078 3.2421875 -0.01171875 C4.3559375 -0.00011719 5.4696875 0.01148437 6.6171875 0.0234375 C8.25300781 0.00603516 8.25300781 0.00603516 9.921875 -0.01171875 C16.19217011 0.01078231 21.43816273 0.72117878 27.37011719 2.74316406 C29.99231741 3.55287246 32.32482972 3.56773945 35.0546875 3.4609375 C39.9050331 3.80934261 41.90897823 5.20488013 45.1796875 8.7734375 C46.65561218 10.61834335 48.09278315 12.49483599 49.4921875 14.3984375 C50.1934375 15.33171875 50.8946875 16.265 51.6171875 17.2265625 C52.97273349 19.06476501 54.31064168 20.91613019 55.62890625 22.78125 C57.81086416 25.84605461 60.11716291 28.80000238 62.4609375 31.7421875 C63.4921875 33.3984375 63.4921875 33.3984375 63.4921875 36.3984375 C64.08837891 36.64682373 64.68457031 36.89520996 65.29882812 37.15112305 C67.83253646 38.59198635 68.92121013 39.97709451 70.5859375 42.35546875 C71.41931641 43.53012695 71.41931641 43.53012695 72.26953125 44.72851562 C72.83800781 45.54771484 73.40648438 46.36691406 73.9921875 47.2109375 C75.12650514 48.82238876 76.26189465 50.43308613 77.3984375 52.04296875 C77.93186768 52.80206543 78.46529785 53.56116211 79.01489258 54.34326172 C80.75591034 56.76532212 82.62659367 59.07178157 84.4921875 61.3984375 C85.42529424 63.07159442 86.35764908 64.74521468 87.27734375 66.42578125 C89.26943269 69.66052375 91.69708801 72.54559547 94.1015625 75.48046875 C95.4921875 77.3984375 95.4921875 77.3984375 95.4921875 79.3984375 C96.9771875 79.8934375 96.9771875 79.8934375 98.4921875 80.3984375 C99.15885417 82.3984375 99.82552083 84.3984375 100.4921875 86.3984375 C101.9771875 86.8934375 101.9771875 86.8934375 103.4921875 87.3984375 C105.02734375 89.6484375 105.02734375 89.6484375 106.5546875 92.3984375 C108.38362313 96.05311441 108.38362313 96.05311441 111.4921875 98.3984375 C112.5625 99.95703125 112.5625 99.95703125 113.6171875 101.8359375 C113.97039062 102.45339844 114.32359375 103.07085937 114.6875 103.70703125 C115.4921875 105.3984375 115.4921875 105.3984375 115.4921875 107.3984375 C116.4821875 107.7284375 117.4721875 108.0584375 118.4921875 108.3984375 C118.4921875 109.3884375 118.4921875 110.3784375 118.4921875 111.3984375 C119.4821875 111.7284375 120.4721875 112.0584375 121.4921875 112.3984375 C122.8515625 114.078125 122.8515625 114.078125 124.2421875 116.2734375 C125.03109375 117.50126953 125.03109375 117.50126953 125.8359375 118.75390625 C126.92017721 120.48510975 128.0035448 122.21685985 129.0859375 123.94921875 C132.51803689 129.41305622 136.07651844 134.75844029 139.8046875 140.0234375 C140.23749023 140.63985107 140.67029297 141.25626465 141.11621094 141.89135742 C143.33853062 145.15286546 143.33853062 145.15286546 146.4921875 147.3984375 C147.31256784 148.76573806 148.07548478 150.16791137 148.8046875 151.5859375 C150.41240019 154.6003988 152.01599937 157.17517508 154.3046875 159.7109375 C156.4921875 162.3984375 156.4921875 162.3984375 156.4921875 166.3984375 C145.39062711 166.46828354 134.28911993 166.52142323 123.18738365 166.55387402 C118.03109286 166.56945731 112.87495361 166.59055985 107.71875 166.62475586 C102.73258624 166.65761311 97.74656725 166.67534552 92.7603035 166.68306923 C90.86833038 166.68856581 88.97636421 166.69929768 87.08445358 166.71562767 C72.86914916 166.83332522 58.6222677 166.8675277 46.4921875 158.3984375 C45.90308594 158.00269531 45.31398437 157.60695313 44.70703125 157.19921875 C33.8177621 148.93924921 27.19005602 135.16026233 24.89581299 121.98446655 C23.97071123 113.7653578 24.25239011 105.45882777 24.296875 97.19921875 C24.30061105 95.15227904 24.30345522 93.10533753 24.30545044 91.05839539 C24.31304032 85.7040197 24.33264831 80.3497547 24.3548584 74.99542236 C24.37541754 69.51844784 24.38447357 64.04145522 24.39453125 58.56445312 C24.41589907 47.84239962 24.44997814 37.12042781 24.4921875 26.3984375 C23.63987549 26.41414795 22.78756348 26.4298584 21.90942383 26.44604492 C18.73187524 26.49732712 15.55453837 26.53486232 12.37670898 26.56323242 C11.00424233 26.57827182 9.63182336 26.59870883 8.25952148 26.62475586 C6.28130094 26.66134971 4.30272236 26.67660448 2.32421875 26.69140625 C1.13546143 26.7071167 -0.0532959 26.72282715 -1.27807617 26.73901367 C-4.84380472 26.36300707 -6.66511027 25.54339998 -9.5078125 23.3984375 C-12.58201821 18.84013249 -13.29788123 14.7474163 -12.5078125 9.3984375 C-10.03411673 2.8431437 -7.06369536 0.02482638 0 0 Z " fill="#03CDC6" transform="translate(23.5078125,109.6015625)"/>
<path d="M0 0 C5.46678092 3.54058942 10.03740759 7.99231735 14.64257812 12.57128906 C15.90922815 13.82504916 17.20449327 15.04975971 18.50390625 16.26953125 C25.27447326 22.70920589 29.27258489 28.78436684 31.08203125 37.99609375 C31.74203125 37.99609375 32.40203125 37.99609375 33.08203125 37.99609375 C33.57703125 41.95609375 33.57703125 41.95609375 34.08203125 45.99609375 C34.74203125 45.99609375 35.40203125 45.99609375 36.08203125 45.99609375 C37.71598257 57.84224079 37.93199544 69.2426323 34.20703125 80.68359375 C34.00989138 84.33068125 35.89454539 86.20097292 38.08203125 88.99609375 C39.58188734 90.66319721 39.58188734 90.66319721 41.08203125 91.99609375 C43.38096289 94.1181845 44.05411293 94.9123388 45.08203125 97.99609375 C45.59765625 98.51171875 46.11328125 99.02734375 46.64453125 99.55859375 C47.11890625 100.03296875 47.59328125 100.50734375 48.08203125 100.99609375 C48.08203125 101.65609375 48.08203125 102.31609375 48.08203125 102.99609375 C48.74203125 102.99609375 49.40203125 102.99609375 50.08203125 102.99609375 C50.48421875 103.89328125 50.48421875 103.89328125 50.89453125 104.80859375 C51.97142915 107.03937283 51.97142915 107.03937283 53.70703125 108.62109375 C54.16078125 109.07484375 54.61453125 109.52859375 55.08203125 109.99609375 C55.08203125 110.65609375 55.08203125 111.31609375 55.08203125 111.99609375 C56.56703125 112.49109375 56.56703125 112.49109375 58.08203125 112.99609375 C58.41203125 113.98609375 58.74203125 114.97609375 59.08203125 115.99609375 C60.05631721 117.02116295 61.05924937 118.01940689 62.08203125 118.99609375 C63.01783543 120.17314161 63.93094176 121.36848566 64.82421875 122.578125 C65.33339844 123.26326172 65.84257813 123.94839844 66.3671875 124.65429688 C66.89183594 125.36521484 67.41648437 126.07613281 67.95703125 126.80859375 C73.82084968 135.03454371 73.82084968 135.03454371 80.64453125 142.43359375 C82.08203125 143.99609375 82.08203125 143.99609375 83.83203125 147.18359375 C85.8804291 150.91152088 88.48946726 153.86213919 91.33984375 157 C93.00323398 158.90581257 94.45724008 160.85419914 95.89453125 162.93359375 C97.7376139 166.01883829 97.7376139 166.01883829 100.08203125 166.99609375 C101.09129206 168.65716883 102.08913821 170.32518346 103.08203125 171.99609375 C104.72415161 174.16801984 106.38269518 176.30777644 108.08203125 178.43359375 C109.07434259 179.68479763 110.06652662 180.93610248 111.05859375 182.1875 C111.56293945 182.82187988 112.06728516 183.45625977 112.58691406 184.10986328 C113.99629795 185.88793316 115.3967848 187.67249234 116.79296875 189.4609375 C121.04662875 194.90771631 125.3334611 200.31904673 129.72119141 205.65869141 C135.32942074 212.49090531 140.76640968 219.43338889 146.08203125 226.49609375 C146.7049707 227.32061035 147.32791016 228.14512695 147.96972656 228.99462891 C159.82020603 244.84777982 159.82020603 244.84777982 159.08203125 252.99609375 C157.85103671 256.92159856 156.02346404 259.95727136 153.26953125 262.99609375 C149.97774458 264.50091051 147.66876706 264.42163868 144.08203125 263.99609375 C138.85906743 261.45583408 135.87852259 259.05728003 132.39453125 254.30859375 C131.97792236 253.7468042 131.56131348 253.18501465 131.13208008 252.60620117 C129.76426069 250.74837897 128.42036498 248.87525448 127.08203125 246.99609375 C126.61635742 246.34382812 126.15068359 245.6915625 125.67089844 245.01953125 C123.17401053 241.51203854 120.69594257 237.99174302 118.2265625 234.46484375 C115.01229992 229.88197298 111.74063376 225.34194357 108.45703125 220.80859375 C104.6488735 215.54933572 100.84988566 210.28431046 97.08203125 204.99609375 C87.13054094 191.0421537 77.04670973 177.18881402 66.86132812 163.40478516 C62.13690533 157.00918206 57.42215978 150.60642965 52.70751953 144.20361328 C51.65922346 142.77995857 50.61073526 141.35644532 49.56201172 139.93310547 C46.39136842 135.62849091 43.23241111 131.31555536 40.08203125 126.99609375 C39.60652832 126.34640625 39.13102539 125.69671875 38.64111328 125.02734375 C37.22043659 123.08310996 35.80657708 121.13410174 34.39453125 119.18359375 C33.74242676 118.29353638 33.74242676 118.29353638 33.07714844 117.38549805 C30.08203125 113.22527293 30.08203125 113.22527293 30.08203125 110.99609375 C29.42203125 110.99609375 28.76203125 110.99609375 28.08203125 110.99609375 C26.48769309 108.9645024 25.02415519 106.94413512 23.58203125 104.80859375 C22.97681641 103.94137695 22.97681641 103.94137695 22.359375 103.05664062 C20.14151955 99.8176933 18.36820053 96.70781052 17.08203125 92.99609375 C16.46328125 93.16109375 15.84453125 93.32609375 15.20703125 93.49609375 C3.60859438 95.35184365 -6.80066227 92.51992131 -16.73046875 86.18359375 C-18.14791069 85.15009712 -19.54389466 84.08658782 -20.91796875 82.99609375 C-22.05685547 82.10083984 -22.05685547 82.10083984 -23.21875 81.1875 C-28.80339334 76.52268027 -33.26732137 71.31136156 -36.91796875 64.99609375 C-36.91796875 64.33609375 -36.91796875 63.67609375 -36.91796875 62.99609375 C-37.57796875 62.99609375 -38.23796875 62.99609375 -38.91796875 62.99609375 C-39.569318 61.43588508 -40.21379839 59.87280796 -40.85546875 58.30859375 C-41.21511719 57.43847656 -41.57476562 56.56835938 -41.9453125 55.671875 C-42.87499995 53.1143011 -43.459595 50.67396145 -43.91796875 47.99609375 C-44.57796875 47.99609375 -45.23796875 47.99609375 -45.91796875 47.99609375 C-46.24796875 44.36609375 -46.57796875 40.73609375 -46.91796875 36.99609375 C-47.57796875 36.99609375 -48.23796875 36.99609375 -48.91796875 36.99609375 C-48.97693743 33.85034168 -49.01188478 30.70473515 -49.04296875 27.55859375 C-49.05972656 26.68009766 -49.07648437 25.80160156 -49.09375 24.89648438 C-49.16845106 14.77449012 -47.67683968 5.96713361 -40.43359375 -1.54296875 C-28.81410811 -11.7848865 -12.37001527 -6.50114826 0 0 Z " fill="#03CEC8" transform="translate(52.91796875,11.00390625)"/>
<path d="M0 0 C5.19424369 4.4820306 6.92490152 9.5446403 7.546875 16.171875 C7.67594238 17.52684082 7.67594238 17.52684082 7.80761719 18.90917969 C7.87110352 19.59915039 7.93458984 20.28912109 8 21 C8.5669458 21.03963867 9.1338916 21.07927734 9.71801758 21.12011719 C36.27338432 23.05452563 66.89670122 27.26496111 86 48 C90.30198621 53.30509357 91.2284807 57.31349939 92 64 C74.49839898 64.02361421 56.9968031 64.04111645 39.49518967 64.05181217 C31.36446337 64.05691572 23.23374721 64.063868 15.10302734 64.07543945 C-55.01119416 64.17333106 -55.01119416 64.17333106 -83 63 C-82.8582988 62.25279694 -82.7165976 61.50559387 -82.57060242 60.73574829 C-82.38705704 59.75125702 -82.20351166 58.76676575 -82.0144043 57.75244141 C-81.83145309 56.77836334 -81.64850189 55.80428528 -81.46000671 54.8006897 C-80.87647318 51.2479234 -80.76934521 47.97646368 -80.8125 44.375 C-80.81894531 43.18648437 -80.82539062 41.99796875 -80.83203125 40.7734375 C-81.02299342 36.48345006 -81.47135858 32.25954802 -82 28 C-77.95865397 27.18589977 -73.91686821 26.37400341 -69.875 25.5625 C-68.73289062 25.33240234 -67.59078125 25.10230469 -66.4140625 24.86523438 C-65.30546875 24.64287109 -64.196875 24.42050781 -63.0546875 24.19140625 C-62.03874512 23.98717041 -61.02280273 23.78293457 -59.97607422 23.57250977 C-55.13647801 22.64151279 -50.56189898 21.87078515 -45.625 21.9375 C-44.31402344 21.95103516 -44.31402344 21.95103516 -42.9765625 21.96484375 C-42.32429688 21.97644531 -41.67203125 21.98804687 -41 22 C-41.05800781 21.2265625 -41.11601562 20.453125 -41.17578125 19.65625 C-41.44520851 13.4363293 -41.37627655 8.81210896 -37.62890625 3.6875 C-28.02762473 -6.25915136 -11.58197249 -7.14258266 0 0 Z " fill="#02CEC7" transform="translate(179,28)"/>
<path d="M0 0 C21.12 0 42.24 0 64 0 C64 0.33 64 0.66 64 1 C44.2 1.33 24.4 1.66 4 2 C4.66 3.32 5.32 4.64 6 6 C6.66 6 7.32 6 8 6 C9.37535339 7.97133986 10.70211044 9.97681922 12 12 C12.7425 12.9075 13.485 13.815 14.25 14.75 C16 17 16 17 16 19 C16.99 19.33 17.98 19.66 19 20 C21.25 22.375 21.25 22.375 23 25 C22.67 25.99 22.34 26.98 22 28 C15.91482392 21.02609545 9.89712081 14.02377978 4.25 6.6875 C3.60538818 5.85279175 3.60538818 5.85279175 2.94775391 5.0012207 C0 1.13115222 0 1.13115222 0 0 Z " fill="#09B7B3" transform="translate(103,102)"/>
<path d="M0 0 C1.98 0.99 1.98 0.99 4 2 C4 2.66 4 3.32 4 4 C4.66 4 5.32 4 6 4 C7.37535339 5.97133986 8.70211044 7.97681922 10 10 C10.7425 10.9075 11.485 11.815 12.25 12.75 C14 15 14 15 14 17 C14.99 17.33 15.98 17.66 17 18 C19.25 20.375 19.25 20.375 21 23 C20.67 23.99 20.34 24.98 20 26 C0 3.16666667 0 3.16666667 0 0 Z " fill="#2ABDB7" transform="translate(105,104)"/>
<path d="M0 0 C3.11020134 2.54471018 4.00133026 5.15896252 5 9 C5.125 11.875 5.125 11.875 5 14 C1.34133706 9.67612562 0 5.65076098 0 0 Z " fill="#4BC5C0" transform="translate(50,235)"/>
<path d="M0 0 C1 3 1 3 1 6 C3.97 6.33 6.94 6.66 10 7 C10 7.33 10 7.66 10 8 C5.71 8 1.42 8 -3 8 C-1 2 -1 2 0 0 Z " fill="#3FC2BE" transform="translate(221,268)"/>
<path d="M0 0 C0.33 0.99 0.66 1.98 1 3 C0.29423828 3.58201172 0.29423828 3.58201172 -0.42578125 4.17578125 C-2.40992887 6.47502924 -2.68533163 8.21311811 -3.1875 11.1875 C-3.34605469 12.08855469 -3.50460937 12.98960938 -3.66796875 13.91796875 C-3.83232422 14.94857422 -3.83232422 14.94857422 -4 16 C-4.33 16 -4.66 16 -5 16 C-5.29209024 10.35292212 -5.0637112 6.94907193 -2 2 C-1.34 1.34 -0.68 0.68 0 0 Z " fill="#0FBAB4" transform="translate(16,111)"/>
<path d="M0 0 C0 0.66 0 1.32 0 2 C-0.99 2.33 -1.98 2.66 -3 3 C-4.67067133 4.99665598 -6.33752986 6.99651034 -8 9 C-8.66 9 -9.32 9 -10 9 C-8.5124715 4.98367305 -4.56813239 0 0 0 Z " fill="#1EC4BE" transform="translate(19,6)"/>
<path d="M0 0 C3.48133831 1.39253532 4.47886033 2.63176216 6 6 C6.66 6.33 7.32 6.66 8 7 C8 7.66 8 8.32 8 9 C4.20620942 7.50958227 2.31656242 5.30937488 0 2 C0 1.34 0 0.68 0 0 Z " fill="#39C1BB" transform="translate(185,263)"/>
<path d="M0 0 C0.99 0.33 1.98 0.66 3 1 C3.33 1.99 3.66 2.98 4 4 C4.99 4.66 5.98 5.32 7 6 C6.67 7.32 6.34 8.64 6 10 C4.99421411 8.71283353 3.99553202 7.42011342 3 6.125 C2.443125 5.40570313 1.88625 4.68640625 1.3125 3.9453125 C0 2 0 2 0 0 Z " fill="#37C6C0" transform="translate(160,228)"/>
<path d="M0 0 C3.99996286 1.33332095 4.83782337 3.4957827 7 7 C6.67 7.66 6.34 8.32 6 9 C4.99406757 7.8803014 3.9954151 6.7540588 3 5.625 C2.443125 4.99851563 1.88625 4.37203125 1.3125 3.7265625 C0 2 0 2 0 0 Z " fill="#34C0BA" transform="translate(126,130)"/>
</svg>
