<?xml version="1.0" encoding="UTF-8"?>
<svg version="1.1" xmlns="http://www.w3.org/2000/svg" width="793" height="311">
<path d="M0 0 C261.69 0 523.38 0 793 0 C793 102.63 793 205.26 793 311 C531.31 311 269.62 311 0 311 C0 208.37 0 105.74 0 0 Z " fill="#FDFEFE" transform="translate(0,0)"/>
<path d="M0 0 C2.5013732 0.00360402 5.00274057 0.00519742 7.50411606 0.0062561 C42.29252221 0.02447219 77.07112488 0.48862685 111.8531456 1.12857056 C112.1831456 2.11857056 112.5131456 3.10857056 112.8531456 4.12857056 C113.8431456 4.45857056 114.8331456 4.78857056 115.8531456 5.12857056 C115.8531456 6.44857056 115.8531456 7.76857056 115.8531456 9.12857056 C117.08617416 9.10500488 117.08617416 9.10500488 118.3441124 9.08096313 C122.07621988 9.01851983 125.80821732 8.9795492 129.5406456 8.94107056 C130.83421982 8.91593384 132.12779404 8.89079712 133.46056747 8.86489868 C134.70773544 8.85523071 135.95490341 8.84556274 137.23986435 8.83560181 C138.38672714 8.81989136 139.53358994 8.80418091 140.71520615 8.78799438 C144.22641381 9.16908321 146.04743464 10.0196947 148.8531456 12.12857056 C151.74864991 16.52174952 152.41192926 19.91325638 151.8531456 25.12857056 C150.01015107 30.3503884 147.64189876 32.45882833 142.8531456 35.12857056 C139.50988388 35.58267212 139.50988388 35.58267212 135.9234581 35.51919556 C134.6343956 35.50630493 133.3453331 35.49341431 132.0172081 35.48013306 C130.67084292 35.44671961 129.32448875 35.41285993 127.9781456 35.37857056 C126.60837991 35.35848412 125.23858594 35.34023711 123.8687706 35.32388306 C120.52950574 35.27685116 117.19168998 35.2111292 113.8531456 35.12857056 C113.86202805 36.21834702 113.87091049 37.30812347 113.8800621 38.43092346 C113.96163964 48.77101837 114.02134476 59.11104682 114.06039429 69.45139217 C114.08114588 74.76571651 114.10923257 80.07977818 114.15490341 85.39395142 C114.19880932 90.53575228 114.22237578 95.67730274 114.23265457 100.81927681 C114.23996654 102.76740007 114.25424132 104.7155118 114.27606583 106.66352654 C114.50309109 127.79457385 111.57829554 148.07832925 96.25548935 164.00357056 C87.33236751 171.89654337 77.8040731 175.31174329 65.9781456 175.19107056 C64.82572372 175.18204712 63.67330185 175.17302368 62.4859581 175.16372681 C61.61712997 175.15212524 60.74830185 175.14052368 59.8531456 175.12857056 C60.87904514 172.02922848 61.92012527 168.94525777 63.0406456 165.87857056 C64.57940809 158.77658982 63.89327881 153.2671654 60.1031456 147.00357056 C55.80671886 140.75743065 50.94252092 134.94326143 46.11486435 129.10513306 C43.27940652 125.66966108 40.54969383 122.17411358 37.8531456 118.62857056 C33.57132309 113.01215402 29.13880976 107.53389875 24.66735458 102.06777954 C21.34329732 97.99364853 18.09804833 93.87679237 14.9156456 89.69107056 C10.45302616 83.8375048 5.79501947 78.1644168 1.09777451 72.49819946 C-3.02638648 67.51451185 -7.05727941 62.46931412 -11.03332901 57.36709595 C-14.51530679 52.90789948 -18.06926247 48.51131724 -21.6468544 44.12857056 C-26.14892763 38.61209444 -30.5875289 33.05300532 -34.96521378 27.43740845 C-37.48047268 24.22035559 -40.02899425 21.03473446 -42.6156044 17.87466431 C-43.20277237 17.15730103 -43.78994034 16.43993774 -44.39490128 15.70083618 C-45.53387462 14.31299018 -46.67565299 12.92743982 -47.82068253 11.54458618 C-48.34081924 10.91101196 -48.86095596 10.27743774 -49.3968544 9.62466431 C-50.08521378 8.79213135 -50.08521378 8.79213135 -50.7874794 7.94277954 C-52.41830135 5.76630003 -53.77947979 3.4774889 -55.1468544 1.12857056 C-36.764851 0.02176772 -18.40673586 -0.03000036 0 0 Z " fill="#01D0C9" transform="translate(160.14685440063477,103.87142944335938)"/>
<path d="M0 0 C1.60488281 -0.00580078 1.60488281 -0.00580078 3.2421875 -0.01171875 C4.3559375 -0.00011719 5.4696875 0.01148437 6.6171875 0.0234375 C8.25300781 0.00603516 8.25300781 0.00603516 9.921875 -0.01171875 C16.19217011 0.01078231 21.43816273 0.72117878 27.37011719 2.74316406 C29.99231741 3.55287246 32.32482972 3.56773945 35.0546875 3.4609375 C39.9050331 3.80934261 41.90897823 5.20488013 45.1796875 8.7734375 C46.65561218 10.61834335 48.09278315 12.49483599 49.4921875 14.3984375 C50.1934375 15.33171875 50.8946875 16.265 51.6171875 17.2265625 C52.97273349 19.06476501 54.31064168 20.91613019 55.62890625 22.78125 C57.81086416 25.84605461 60.11716291 28.80000238 62.4609375 31.7421875 C63.4921875 33.3984375 63.4921875 33.3984375 63.4921875 36.3984375 C64.08837891 36.64682373 64.68457031 36.89520996 65.29882812 37.15112305 C67.83253646 38.59198635 68.92121013 39.97709451 70.5859375 42.35546875 C71.41931641 43.53012695 71.41931641 43.53012695 72.26953125 44.72851562 C72.83800781 45.54771484 73.40648438 46.36691406 73.9921875 47.2109375 C75.12650514 48.82238876 76.26189465 50.43308613 77.3984375 52.04296875 C77.93186768 52.80206543 78.46529785 53.56116211 79.01489258 54.34326172 C80.75591034 56.76532212 82.62659367 59.07178157 84.4921875 61.3984375 C85.42529424 63.07159442 86.35764908 64.74521468 87.27734375 66.42578125 C89.26943269 69.66052375 91.69708801 72.54559547 94.1015625 75.48046875 C95.4921875 77.3984375 95.4921875 77.3984375 95.4921875 79.3984375 C96.9771875 79.8934375 96.9771875 79.8934375 98.4921875 80.3984375 C99.15885417 82.3984375 99.82552083 84.3984375 100.4921875 86.3984375 C101.9771875 86.8934375 101.9771875 86.8934375 103.4921875 87.3984375 C105.02734375 89.6484375 105.02734375 89.6484375 106.5546875 92.3984375 C108.38362313 96.05311441 108.38362313 96.05311441 111.4921875 98.3984375 C112.5625 99.95703125 112.5625 99.95703125 113.6171875 101.8359375 C113.97039062 102.45339844 114.32359375 103.07085937 114.6875 103.70703125 C115.4921875 105.3984375 115.4921875 105.3984375 115.4921875 107.3984375 C116.4821875 107.7284375 117.4721875 108.0584375 118.4921875 108.3984375 C118.4921875 109.3884375 118.4921875 110.3784375 118.4921875 111.3984375 C119.4821875 111.7284375 120.4721875 112.0584375 121.4921875 112.3984375 C122.8515625 114.078125 122.8515625 114.078125 124.2421875 116.2734375 C125.03109375 117.50126953 125.03109375 117.50126953 125.8359375 118.75390625 C126.92017721 120.48510975 128.0035448 122.21685985 129.0859375 123.94921875 C132.51803689 129.41305622 136.07651844 134.75844029 139.8046875 140.0234375 C140.23749023 140.63985107 140.67029297 141.25626465 141.11621094 141.89135742 C143.33853062 145.15286546 143.33853062 145.15286546 146.4921875 147.3984375 C147.31256784 148.76573806 148.07548478 150.16791137 148.8046875 151.5859375 C150.41240019 154.6003988 152.01599937 157.17517508 154.3046875 159.7109375 C156.4921875 162.3984375 156.4921875 162.3984375 156.4921875 166.3984375 C145.39062711 166.46828354 134.28911993 166.52142323 123.18738365 166.55387402 C118.03109286 166.56945731 112.87495361 166.59055985 107.71875 166.62475586 C102.73258624 166.65761311 97.74656725 166.67534552 92.7603035 166.68306923 C90.86833038 166.68856581 88.97636421 166.69929768 87.08445358 166.71562767 C72.86914916 166.83332522 58.6222677 166.8675277 46.4921875 158.3984375 C45.90308594 158.00269531 45.31398437 157.60695313 44.70703125 157.19921875 C33.8177621 148.93924921 27.19005602 135.16026233 24.89581299 121.98446655 C23.97071123 113.7653578 24.25239011 105.45882777 24.296875 97.19921875 C24.30061105 95.15227904 24.30345522 93.10533753 24.30545044 91.05839539 C24.31304032 85.7040197 24.33264831 80.3497547 24.3548584 74.99542236 C24.37541754 69.51844784 24.38447357 64.04145522 24.39453125 58.56445312 C24.41589907 47.84239962 24.44997814 37.12042781 24.4921875 26.3984375 C23.63987549 26.41414795 22.78756348 26.4298584 21.90942383 26.44604492 C18.73187524 26.49732712 15.55453837 26.53486232 12.37670898 26.56323242 C11.00424233 26.57827182 9.63182336 26.59870883 8.25952148 26.62475586 C6.28130094 26.66134971 4.30272236 26.67660448 2.32421875 26.69140625 C1.13546143 26.7071167 -0.0532959 26.72282715 -1.27807617 26.73901367 C-4.84380472 26.36300707 -6.66511027 25.54339998 -9.5078125 23.3984375 C-12.58201821 18.84013249 -13.29788123 14.7474163 -12.5078125 9.3984375 C-10.03411673 2.8431437 -7.06369536 0.02482638 0 0 Z " fill="#03CDC6" transform="translate(25.5078125,112.6015625)"/>
<path d="M0 0 C5.46678092 3.54058942 10.03740759 7.99231735 14.64257812 12.57128906 C15.90922815 13.82504916 17.20449327 15.04975971 18.50390625 16.26953125 C25.27447326 22.70920589 29.27258489 28.78436684 31.08203125 37.99609375 C31.74203125 37.99609375 32.40203125 37.99609375 33.08203125 37.99609375 C33.57703125 41.95609375 33.57703125 41.95609375 34.08203125 45.99609375 C34.74203125 45.99609375 35.40203125 45.99609375 36.08203125 45.99609375 C37.71598257 57.84224079 37.93199544 69.2426323 34.20703125 80.68359375 C34.00989138 84.33068125 35.89454539 86.20097292 38.08203125 88.99609375 C39.58188734 90.66319721 39.58188734 90.66319721 41.08203125 91.99609375 C43.38096289 94.1181845 44.05411293 94.9123388 45.08203125 97.99609375 C45.59765625 98.51171875 46.11328125 99.02734375 46.64453125 99.55859375 C47.11890625 100.03296875 47.59328125 100.50734375 48.08203125 100.99609375 C48.08203125 101.65609375 48.08203125 102.31609375 48.08203125 102.99609375 C48.74203125 102.99609375 49.40203125 102.99609375 50.08203125 102.99609375 C50.48421875 103.89328125 50.48421875 103.89328125 50.89453125 104.80859375 C51.97142915 107.03937283 51.97142915 107.03937283 53.70703125 108.62109375 C54.16078125 109.07484375 54.61453125 109.52859375 55.08203125 109.99609375 C55.08203125 110.65609375 55.08203125 111.31609375 55.08203125 111.99609375 C56.56703125 112.49109375 56.56703125 112.49109375 58.08203125 112.99609375 C58.41203125 113.98609375 58.74203125 114.97609375 59.08203125 115.99609375 C60.05631721 117.02116295 61.05924937 118.01940689 62.08203125 118.99609375 C63.01783543 120.17314161 63.93094176 121.36848566 64.82421875 122.578125 C65.33339844 123.26326172 65.84257813 123.94839844 66.3671875 124.65429688 C66.89183594 125.36521484 67.41648437 126.07613281 67.95703125 126.80859375 C73.82084968 135.03454371 73.82084968 135.03454371 80.64453125 142.43359375 C82.08203125 143.99609375 82.08203125 143.99609375 83.83203125 147.18359375 C85.8804291 150.91152088 88.48946726 153.86213919 91.33984375 157 C93.00323398 158.90581257 94.45724008 160.85419914 95.89453125 162.93359375 C97.7376139 166.01883829 97.7376139 166.01883829 100.08203125 166.99609375 C101.09129206 168.65716883 102.08913821 170.32518346 103.08203125 171.99609375 C104.72415161 174.16801984 106.38269518 176.30777644 108.08203125 178.43359375 C109.07434259 179.68479763 110.06652662 180.93610248 111.05859375 182.1875 C111.56293945 182.82187988 112.06728516 183.45625977 112.58691406 184.10986328 C113.99629795 185.88793316 115.3967848 187.67249234 116.79296875 189.4609375 C121.04662875 194.90771631 125.3334611 200.31904673 129.72119141 205.65869141 C135.32942074 212.49090531 140.76640968 219.43338889 146.08203125 226.49609375 C146.7049707 227.32061035 147.32791016 228.14512695 147.96972656 228.99462891 C159.82020603 244.84777982 159.82020603 244.84777982 159.08203125 252.99609375 C157.85103671 256.92159856 156.02346404 259.95727136 153.26953125 262.99609375 C149.97774458 264.50091051 147.66876706 264.42163868 144.08203125 263.99609375 C138.85906743 261.45583408 135.87852259 259.05728003 132.39453125 254.30859375 C131.97792236 253.7468042 131.56131348 253.18501465 131.13208008 252.60620117 C129.76426069 250.74837897 128.42036498 248.87525448 127.08203125 246.99609375 C126.61635742 246.34382812 126.15068359 245.6915625 125.67089844 245.01953125 C123.17401053 241.51203854 120.69594257 237.99174302 118.2265625 234.46484375 C115.01229992 229.88197298 111.74063376 225.34194357 108.45703125 220.80859375 C104.6488735 215.54933572 100.84988566 210.28431046 97.08203125 204.99609375 C87.13054094 191.0421537 77.04670973 177.18881402 66.86132812 163.40478516 C62.13690533 157.00918206 57.42215978 150.60642965 52.70751953 144.20361328 C51.65922346 142.77995857 50.61073526 141.35644532 49.56201172 139.93310547 C46.39136842 135.62849091 43.23241111 131.31555536 40.08203125 126.99609375 C39.60652832 126.34640625 39.13102539 125.69671875 38.64111328 125.02734375 C37.22043659 123.08310996 35.80657708 121.13410174 34.39453125 119.18359375 C33.74242676 118.29353638 33.74242676 118.29353638 33.07714844 117.38549805 C30.08203125 113.22527293 30.08203125 113.22527293 30.08203125 110.99609375 C29.42203125 110.99609375 28.76203125 110.99609375 28.08203125 110.99609375 C26.48769309 108.9645024 25.02415519 106.94413512 23.58203125 104.80859375 C22.97681641 103.94137695 22.97681641 103.94137695 22.359375 103.05664062 C20.14151955 99.8176933 18.36820053 96.70781052 17.08203125 92.99609375 C16.46328125 93.16109375 15.84453125 93.32609375 15.20703125 93.49609375 C3.60859438 95.35184365 -6.80066227 92.51992131 -16.73046875 86.18359375 C-18.14791069 85.15009712 -19.54389466 84.08658782 -20.91796875 82.99609375 C-22.05685547 82.10083984 -22.05685547 82.10083984 -23.21875 81.1875 C-28.80339334 76.52268027 -33.26732137 71.31136156 -36.91796875 64.99609375 C-36.91796875 64.33609375 -36.91796875 63.67609375 -36.91796875 62.99609375 C-37.57796875 62.99609375 -38.23796875 62.99609375 -38.91796875 62.99609375 C-39.569318 61.43588508 -40.21379839 59.87280796 -40.85546875 58.30859375 C-41.21511719 57.43847656 -41.57476562 56.56835938 -41.9453125 55.671875 C-42.87499995 53.1143011 -43.459595 50.67396145 -43.91796875 47.99609375 C-44.57796875 47.99609375 -45.23796875 47.99609375 -45.91796875 47.99609375 C-46.24796875 44.36609375 -46.57796875 40.73609375 -46.91796875 36.99609375 C-47.57796875 36.99609375 -48.23796875 36.99609375 -48.91796875 36.99609375 C-48.97693743 33.85034168 -49.01188478 30.70473515 -49.04296875 27.55859375 C-49.05972656 26.68009766 -49.07648437 25.80160156 -49.09375 24.89648438 C-49.16845106 14.77449012 -47.67683968 5.96713361 -40.43359375 -1.54296875 C-28.81410811 -11.7848865 -12.37001527 -6.50114826 0 0 Z " fill="#03CEC8" transform="translate(54.91796875,14.00390625)"/>
<path d="M0 0 C5.19424369 4.4820306 6.92490152 9.5446403 7.546875 16.171875 C7.67594238 17.52684082 7.67594238 17.52684082 7.80761719 18.90917969 C7.87110352 19.59915039 7.93458984 20.28912109 8 21 C8.5669458 21.03963867 9.1338916 21.07927734 9.71801758 21.12011719 C36.27338432 23.05452563 66.89670122 27.26496111 86 48 C90.30198621 53.30509357 91.2284807 57.31349939 92 64 C74.49839898 64.02361421 56.9968031 64.04111645 39.49518967 64.05181217 C31.36446337 64.05691572 23.23374721 64.063868 15.10302734 64.07543945 C-55.01119416 64.17333106 -55.01119416 64.17333106 -83 63 C-82.8582988 62.25279694 -82.7165976 61.50559387 -82.57060242 60.73574829 C-82.38705704 59.75125702 -82.20351166 58.76676575 -82.0144043 57.75244141 C-81.83145309 56.77836334 -81.64850189 55.80428528 -81.46000671 54.8006897 C-80.87647318 51.2479234 -80.76934521 47.97646368 -80.8125 44.375 C-80.81894531 43.18648437 -80.82539062 41.99796875 -80.83203125 40.7734375 C-81.02299342 36.48345006 -81.47135858 32.25954802 -82 28 C-77.95865397 27.18589977 -73.91686821 26.37400341 -69.875 25.5625 C-68.73289062 25.33240234 -67.59078125 25.10230469 -66.4140625 24.86523438 C-65.30546875 24.64287109 -64.196875 24.42050781 -63.0546875 24.19140625 C-62.03874512 23.98717041 -61.02280273 23.78293457 -59.97607422 23.57250977 C-55.13647801 22.64151279 -50.56189898 21.87078515 -45.625 21.9375 C-44.31402344 21.95103516 -44.31402344 21.95103516 -42.9765625 21.96484375 C-42.32429688 21.97644531 -41.67203125 21.98804687 -41 22 C-41.05800781 21.2265625 -41.11601562 20.453125 -41.17578125 19.65625 C-41.44520851 13.4363293 -41.37627655 8.81210896 -37.62890625 3.6875 C-28.02762473 -6.25915136 -11.58197249 -7.14258266 0 0 Z " fill="#02CEC7" transform="translate(181,31)"/>
<path d="M0 0 C7.22242401 -0.07646293 14.44474246 -0.12877249 21.66748047 -0.16479492 C24.12129619 -0.17982224 26.57508533 -0.2002498 29.02880859 -0.22631836 C32.56875192 -0.2629682 36.10833814 -0.27978755 39.6484375 -0.29296875 C41.277173 -0.31619453 41.277173 -0.31619453 42.93881226 -0.33988953 C53.07481168 -0.34209725 61.88697039 1.69404891 70 8 C74.61759824 12.61759824 77.1200218 18.46857323 77.3125 25 C76.96367794 32.73474997 75.00466925 39.17451058 69.25390625 44.66796875 C64.71018006 48.64490997 64.71018006 48.64490997 62 50 C66.17023897 61.38175718 74.15954263 81.3931729 84.9375 87.6875 C85.948125 88.120625 86.95875 88.55375 88 89 C88.04254356 90.99954746 88.04080783 93.00041636 88 95 C85.44325771 97.55674229 78.67875121 96.3799573 75.25 96.4375 C73.60257813 96.50614258 73.60257813 96.50614258 71.921875 96.57617188 C63.828052 96.68913178 63.828052 96.68913178 60.04296875 93.5390625 C58.99072266 91.88354492 58.99072266 91.88354492 58 90 C57.60216309 89.31848877 57.20432617 88.63697754 56.79443359 87.93481445 C55.48750779 85.63084463 54.2678917 83.29607024 53.0625 80.9375 C52.6308252 80.10420166 52.19915039 79.27090332 51.75439453 78.41235352 C42 59.44912449 42 59.44912449 42 56 C37.71 56 33.42 56 29 56 C29 65.9 29 75.8 29 86 C31.97 86.66 34.94 87.32 38 88 C38.38063221 90.3260857 38.71269945 92.66055264 39 95 C37.18434564 96.81565436 34.68730038 96.12861899 32.27111816 96.13894653 C31.47008667 96.1369223 30.66905518 96.13489807 29.84375 96.1328125 C28.61754944 96.13424759 28.61754944 96.13424759 27.36657715 96.13571167 C25.63484622 96.13639345 23.90311276 96.13453929 22.17138672 96.13037109 C19.51133518 96.12502279 16.8514525 96.13031612 14.19140625 96.13671875 C12.51302046 96.13605797 10.83463477 96.1347768 9.15625 96.1328125 C8.35521851 96.13483673 7.55418701 96.13686096 6.72888184 96.13894653 C1.11495079 96.11495079 1.11495079 96.11495079 0 95 C-0.04080783 93.00041636 -0.04254356 90.99954746 0 89 C2.64 88.01 5.28 87.02 8 86 C8.06946019 76.53383128 8.12279088 67.06775006 8.15543652 57.60138226 C8.1711035 53.20592445 8.19236044 48.81064078 8.22631836 44.4152832 C8.25887524 40.17481076 8.27684523 35.93450599 8.28463173 31.69391823 C8.29018187 30.07474947 8.30101979 28.45559006 8.31719017 26.83649254 C8.33891617 24.57137477 8.34196903 22.30695297 8.34057617 20.04174805 C8.34723801 18.75157272 8.35389984 17.4613974 8.36076355 16.13212585 C8.26504256 13.04394138 8.26504256 13.04394138 6.64668274 11.13801575 C4.89610123 9.85983911 4.89610123 9.85983911 2.3125 8.75 C1.549375 8.1725 0.78625 7.595 0 7 C-0.14453125 3.390625 -0.14453125 3.390625 0 0 Z " fill="#03CCC5" transform="translate(346,61)"/>
<path d="M0 0 C0.33 2.31 0.66 4.62 1 7 C2.24716797 6.36771484 2.24716797 6.36771484 3.51953125 5.72265625 C5.14955078 4.90087891 5.14955078 4.90087891 6.8125 4.0625 C7.89144531 3.51722656 8.97039063 2.97195312 10.08203125 2.41015625 C16.62916501 -0.75385351 21.61350408 -0.64471789 28.4375 1.4375 C34.50726712 3.80863324 38.60342065 7.44851536 42 13 C44.64722239 19.0484524 45.52296388 24.68623873 45.4375 31.25 C45.42992676 32.07411377 45.42235352 32.89822754 45.41455078 33.74731445 C45.07543871 46.45411599 41.23203031 55.90645926 32.1875 64.75 C24.75137046 69.99903262 18.16551539 72.18889038 9 71 C6.41678754 70.23289218 4.3999531 69.2765708 2 68 C1.34 67.67 0.68 67.34 0 67 C0 74.92 0 82.84 0 91 C1.32 91.33 2.64 91.66 4 92 C6.36828288 92.92902153 8.67235373 93.97046415 11 95 C11.042721 96.66611905 11.04063832 98.33382885 11 100 C10 101 10 101 6.39819336 101.11352539 C4.79540144 101.11336625 3.1926044 101.10767063 1.58984375 101.09765625 C0.74780899 101.0962413 -0.09422577 101.09482635 -0.96177673 101.09336853 C-3.66205335 101.08775263 -6.36224828 101.07519748 -9.0625 101.0625 C-10.88867068 101.05748705 -12.71484266 101.05292379 -14.54101562 101.04882812 C-19.02737542 101.03777804 -23.51367384 101.02050279 -28 101 C-28 98.69 -28 96.38 -28 94 C-23.545 93.01 -23.545 93.01 -19 92 C-19.33 65.93 -19.66 39.86 -20 13 C-22.64 11.68 -25.28 10.36 -28 9 C-28.042721 7.33388095 -28.04063832 5.66617115 -28 4 C-26.35045591 2.35045591 -24.27986133 2.53894056 -22.01171875 2.24609375 C-20.99529297 2.11396484 -19.97886719 1.98183594 -18.93164062 1.84570312 C-17.32579102 1.64364258 -17.32579102 1.64364258 -15.6875 1.4375 C-14.62853516 1.29892578 -13.56957031 1.16035156 -12.47851562 1.01757812 C-8.26917342 0.4777825 -4.2507433 0 0 0 Z " fill="#06CDC6" transform="translate(639,87)"/>
<path d="M0 0 C5.29640802 3.7315602 8.26294712 8.07401856 9.890625 14.33203125 C10.1034602 17.12929387 10.22311096 19.78930534 10.203125 22.58203125 C10.20183594 23.32767334 10.20054687 24.07331543 10.19921875 24.84155273 C10.09767498 30.69618577 9.13651389 35.89109805 6.890625 41.33203125 C6.230625 41.33203125 5.570625 41.33203125 4.890625 41.33203125 C4.66375 42.05390625 4.436875 42.77578125 4.203125 43.51953125 C1.6327967 49.02737761 -2.98528987 52.27938479 -8.109375 55.33203125 C-15.27139641 57.55371952 -21.53301571 56.69017216 -28.109375 53.33203125 C-27.9684401 55.7699051 -27.82182958 58.20720978 -27.671875 60.64453125 C-27.63255859 61.33482422 -27.59324219 62.02511719 -27.55273438 62.73632812 C-27.36010085 65.8036466 -27.08614783 68.40171277 -26.109375 71.33203125 C-22.60642629 73.04770786 -22.60642629 73.04770786 -19.109375 74.33203125 C-19.109375 76.31203125 -19.109375 78.29203125 -19.109375 80.33203125 C-29.669375 80.33203125 -40.229375 80.33203125 -51.109375 80.33203125 C-51.109375 78.35203125 -51.109375 76.37203125 -51.109375 74.33203125 C-47.644375 73.34203125 -47.644375 73.34203125 -44.109375 72.33203125 C-44.109375 51.21203125 -44.109375 30.09203125 -44.109375 8.33203125 C-46.584375 7.34203125 -46.584375 7.34203125 -49.109375 6.33203125 C-49.769375 6.00203125 -50.429375 5.67203125 -51.109375 5.33203125 C-51.109375 3.68203125 -51.109375 2.03203125 -51.109375 0.33203125 C-44.56928726 -2.93801262 -35.2362709 -1.78991184 -28.109375 -1.66796875 C-27.779375 -0.01796875 -27.449375 1.63203125 -27.109375 3.33203125 C-26.50609375 2.98269531 -25.9028125 2.63335937 -25.28125 2.2734375 C-24.48203125 1.81839844 -23.6828125 1.36335937 -22.859375 0.89453125 C-21.67601562 0.21583984 -21.67601562 0.21583984 -20.46875 -0.4765625 C-13.63705503 -3.92634224 -6.61626623 -3.68583335 0 0 Z " fill="#07CCC6" transform="translate(527.109375,215.66796875)"/>
<path d="M0 0 C19.8 0 39.6 0 60 0 C60 7.59 60 15.18 60 23 C58.02 23 56.04 23 54 23 C50.56842822 19.07820368 50.31850693 15.27402772 49 10 C41.08 9.67 33.16 9.34 25 9 C25 17.91 25 26.82 25 36 C30.61 36 36.22 36 42 36 C42.66 33.36 43.32 30.72 44 28 C45.99954746 27.95745644 48.00041636 27.95919217 50 28 C51.68023 29.68023 51.13006804 31.75775928 51.1328125 34.05859375 C51.13474609 35.59676758 51.13474609 35.59676758 51.13671875 37.16601562 C51.13285156 38.24560547 51.12898438 39.32519531 51.125 40.4375 C51.13080078 42.05108398 51.13080078 42.05108398 51.13671875 43.69726562 C51.13542969 44.72400391 51.13414062 45.75074219 51.1328125 46.80859375 C51.13168457 47.75532959 51.13055664 48.70206543 51.12939453 49.67749023 C51 52 51 52 50 54 C47.6875 53.8125 47.6875 53.8125 45 53 C43.25 50.5625 43.25 50.5625 42 48 C41.67 47.34 41.34 46.68 41 46 C38.27779617 45.68669533 35.6677157 45.48735017 32.9375 45.375 C29.0084375 45.189375 29.0084375 45.189375 25 45 C25 53.58 25 62.16 25 71 C28.7125 71.0825 32.425 71.165 36.25 71.25 C37.4143457 71.28641602 38.57869141 71.32283203 39.77832031 71.36035156 C40.70225586 71.3703418 41.62619141 71.38033203 42.578125 71.390625 C43.52075195 71.41157227 44.46337891 71.43251953 45.43457031 71.45410156 C48.7768229 70.86249614 49.88162688 69.59354411 52 67 C53.15473445 64.95537846 54.23687038 62.86836193 55.25 60.75 C55.77078125 59.67234375 56.2915625 58.5946875 56.828125 57.484375 C57.21484375 56.66453125 57.6015625 55.8446875 58 55 C59.98 55.66 61.96 56.32 64 57 C63.90912109 57.96486328 63.90912109 57.96486328 63.81640625 58.94921875 C63.13510514 66.29678918 62.56613733 73.64021475 62 81 C41.87 81 21.74 81 1 81 C1 79.02 1 77.04 1 75 C4.465 74.01 4.465 74.01 8 73 C7.91551131 65.39354537 7.82059494 57.78728099 7.71247292 50.18112659 C7.66258932 46.64902973 7.61625893 43.11696161 7.578125 39.5847168 C7.53409746 35.52113239 7.47447893 31.45790528 7.4140625 27.39453125 C7.40251129 26.1297847 7.39096008 24.86503815 7.37905884 23.56196594 C7.35918915 22.38111923 7.33931946 21.20027252 7.31884766 19.98364258 C7.30552399 18.94661697 7.29220032 17.90959137 7.2784729 16.84114075 C6.98437699 13.84060503 6.38145768 11.67549416 5 9 C4.13375 8.525625 3.2675 8.05125 2.375 7.5625 C1.59125 7.046875 0.8075 6.53125 0 6 C0 4.02 0 2.04 0 0 Z " fill="#05CDC6" transform="translate(344,190)"/>
<path d="M0 0 C4.91244664 2.90119131 8.88502208 5.93917742 11.15625 11.2734375 C13.65883924 23.28586586 12.53825851 34.52652155 6.03125 45.0859375 C1.71096032 50.65014959 -6.01182852 54.9070532 -12.84375 56.2734375 C-21.63825699 57.09391629 -29.65303206 56.34296036 -36.796875 50.7421875 C-38.46875 49.1484375 -38.46875 49.1484375 -40.84375 46.2734375 C-40.84375 45.6134375 -40.84375 44.9534375 -40.84375 44.2734375 C-41.50375 44.2734375 -42.16375 44.2734375 -42.84375 44.2734375 C-45.45779625 38.98294072 -46.36499436 34.84032303 -46.28125 28.9609375 C-46.27367676 28.21473145 -46.26610352 27.46852539 -46.25830078 26.69970703 C-46.00521985 18.18547348 -43.53792768 11.13360286 -37.69140625 4.80859375 C-27.34473136 -3.78811498 -12.15233496 -5.71159743 0 0 Z " fill="#0ACEC7" transform="translate(620.84375,215.7265625)"/>
<path d="M0 0 C5.06208246 4.51742801 6.56138136 8.92465202 7.8515625 15.52734375 C7.8515625 20.14734375 7.8515625 24.76734375 7.8515625 29.52734375 C-5.6784375 29.52734375 -19.2084375 29.52734375 -33.1484375 29.52734375 C-31.19874584 40.83941663 -31.19874584 40.83941663 -24.0859375 48.90234375 C-18.79366461 51.82998407 -14.09407177 52.30723654 -8.1484375 51.52734375 C-5.40900708 50.44485841 -2.93040358 49.17957517 -0.375 47.71875 C1.751928 46.58065695 3.46488593 45.85512766 5.8515625 45.52734375 C7.6015625 46.96484375 7.6015625 46.96484375 8.8515625 48.52734375 C6.55569259 55.36737069 1.51736537 59.53638576 -4.73046875 62.9296875 C-14.50590924 66.95150123 -24.80472387 66.96838707 -34.57421875 62.91796875 C-41.96118319 58.92743865 -47.32755003 53.46011569 -50.1484375 45.52734375 C-50.37144531 44.90214844 -50.59445312 44.27695313 -50.82421875 43.6328125 C-54.16188706 32.48454624 -52.10494002 21.06248057 -46.7578125 10.87890625 C-41.34338306 2.30131014 -34.25207062 -2.34156631 -24.6484375 -5.22265625 C-15.60484958 -6.12701504 -7.72827795 -5.29738325 0 0 Z " fill="#04CCC5" transform="translate(745.1484375,92.47265625)"/>
<path d="M0 0 C5.82262473 6.39068568 7.71046104 14.06691678 7.6875 22.5625 C7.69136719 24.00882813 7.69136719 24.00882813 7.6953125 25.484375 C7.5625 27.8125 7.5625 27.8125 6.5625 28.8125 C3.60720496 28.97279688 0.67267543 29.07207328 -2.28515625 29.12890625 C-3.1715831 29.14968735 -4.05800995 29.17046844 -4.97129822 29.19187927 C-7.814117 29.257474 -10.65703117 29.31630552 -13.5 29.375 C-15.42253606 29.4181758 -17.34506234 29.46178978 -19.26757812 29.50585938 C-23.99078668 29.61316543 -28.71409153 29.71440451 -33.4375 29.8125 C-33.14717205 31.41005785 -32.84871934 33.00614049 -32.546875 34.6015625 C-32.38155273 35.49053223 -32.21623047 36.37950195 -32.04589844 37.29541016 C-30.83685383 42.29751688 -28.41000842 45.07815691 -24.375 48.125 C-19.12324075 51.14196808 -14.38374566 51.71684153 -8.4375 50.8125 C-5.18216667 49.37056708 -2.16221624 47.7466983 0.8984375 45.9296875 C3.5625 44.8125 3.5625 44.8125 5.8515625 45.4453125 C7.5625 46.8125 7.5625 46.8125 8.5625 49.8125 C2.67074911 57.36644876 -3.76362312 63.00980339 -13.4375 64.8125 C-24.61402981 65.67115027 -33.91728352 64.25613868 -42.91015625 57.2734375 C-49.98517964 50.50602382 -52.53653111 40.72689103 -52.75 31.1875 C-52.39108441 20.64435455 -49.47438725 10.79026993 -42.125 2.9375 C-30.52162834 -7.7135431 -12.94455919 -9.46201281 0 0 Z " fill="#05CCC5" transform="translate(489.4375,93.1875)"/>
<path d="M0 0 C0.02887512 3.64581687 0.04675585 7.29160463 0.0625 10.9375 C0.07087891 11.97841797 0.07925781 13.01933594 0.08789062 14.09179688 C0.09111328 15.08115234 0.09433594 16.07050781 0.09765625 17.08984375 C0.10289307 18.00628662 0.10812988 18.92272949 0.11352539 19.86694336 C0 22 0 22 -1 23 C-3.67058851 23.14115161 -6.32432238 23.04247107 -9 23 C-9.67057887 21.2097939 -10.3363469 19.41778511 -11 17.625 C-11.37125 16.62726563 -11.7425 15.62953125 -12.125 14.6015625 C-13 12 -13 12 -13 10 C-17.17132386 8.04469194 -21.37171732 6.78219846 -26 7 C-30.45638656 9.1861519 -32.87611078 11.52865427 -35 16 C-37.58592138 24.82811071 -37.3835772 36.85907092 -33 45 C-30.04944569 49.80831073 -26.27912704 52.2527491 -21 54 C-14.27322542 55.1622176 -9.76234578 53.28203173 -4 50 C-2.34302621 49.30959426 -0.68076231 48.63028587 1 48 C2.5 49.375 2.5 49.375 4 51 C4 51.66 4 52.32 4 53 C3.34 53 2.68 53 2 53 C1.85691406 53.88171875 1.85691406 53.88171875 1.7109375 54.78125 C0.09754214 59.81646189 -4.99241597 62.90175228 -9.44921875 65.33984375 C-17.71061185 68.80987583 -28.54941447 70.16655983 -37.0625 66.75 C-38.5165625 65.88375 -38.5165625 65.88375 -40 65 C-40.99 64.443125 -41.98 63.88625 -43 63.3125 C-46.86167729 60.33579043 -50.11786434 56.9394872 -53 53 C-53 52.34 -53 51.68 -53 51 C-53.66 51 -54.32 51 -55 51 C-57.97626528 37.02218271 -58.13095962 25.2804302 -50.82421875 12.6484375 C-44.98718027 4.17410754 -37.0950767 -0.58288683 -27.0859375 -2.58203125 C-17.53522037 -3.87560939 -9.12363392 -2.95644607 0 0 Z " fill="#07CEC7" transform="translate(563,90)"/>
<path d="M0 0 C10.23 0 20.46 0 31 0 C31 1.65 31 3.3 31 5 C29.35 5.66 27.7 6.32 26 7 C28.54664585 11.81033104 30.99027798 15.32442148 35 19 C36.17249353 17.54634731 37.33783816 16.08692581 38.5 14.625 C39.1496875 13.81289062 39.799375 13.00078125 40.46875 12.1640625 C42.19253615 10.16973157 42.19253615 10.16973157 42 8 C40.68 7.34 39.36 6.68 38 6 C38 4.02 38 2.04 38 0 C45.59 0 53.18 0 61 0 C61 1.98 61 3.96 61 6 C60.12601562 6.37511719 59.25203125 6.75023437 58.3515625 7.13671875 C54.65049179 9.19430701 52.12972296 11.67258273 49.375 14.8125 C48.9109375 15.32103516 48.446875 15.82957031 47.96875 16.35351562 C44.95531304 19.7117102 42.4230086 23.1948527 40 27 C42.63695225 30.68892788 45.30810004 34.35098006 48 38 C49.02287109 39.39412109 49.02287109 39.39412109 50.06640625 40.81640625 C53.94671794 45.91168833 57.1490039 49.31829345 63 52 C62.67 53.65 62.34 55.3 62 57 C52.43 57 42.86 57 33 57 C33 55.35 33 53.7 33 52 C34.98 51.505 34.98 51.505 37 51 C36.3503125 50.15695312 35.700625 49.31390625 35.03125 48.4453125 C34.18724883 47.33873319 33.34351251 46.23195185 32.5 45.125 C32.07074219 44.56941406 31.64148438 44.01382813 31.19921875 43.44140625 C28 39.2265625 28 39.2265625 28 37 C27.34 37 26.68 37 26 37 C25.731875 37.721875 25.46375 38.44375 25.1875 39.1875 C24 42 24 42 22.375 44.625 C20.74948186 46.97532776 20.74948186 46.97532776 21 50 C22.32 50.66 23.64 51.32 25 52 C24.67 53.65 24.34 55.3 24 57 C16.41 57 8.82 57 1 57 C1 55.35 1 53.7 1 52 C3.5625 50.1875 3.5625 50.1875 5.2265625 49.2109375 C11.65727023 44.81992562 16.33581887 37.1243959 21 31 C18.23043287 25.94083756 15.20963164 21.31444549 11.6875 16.75 C11.23955078 16.13898438 10.79160156 15.52796875 10.33007812 14.8984375 C7.00139571 10.58574571 4.15672485 8.76801995 -1 7 C-0.67 4.69 -0.34 2.38 0 0 Z " fill="#07CEC7" transform="translate(411,214)"/>
<path d="M0 0 C4.67819073 3.31916326 6.88096374 8.01316494 8.09765625 13.48828125 C8.30041714 17.49670815 8.36556556 21.48210251 8.09765625 25.48828125 C7.09765625 26.48828125 7.09765625 26.48828125 3.95483398 26.60180664 C2.56362928 26.60164758 1.17241864 26.59595631 -0.21875 26.5859375 C-0.94980453 26.58452255 -1.68085907 26.5831076 -2.43406677 26.58164978 C-4.77770007 26.57603533 -7.12123914 26.56348047 -9.46484375 26.55078125 C-11.05012883 26.54576811 -12.63541541 26.54120488 -14.22070312 26.53710938 C-18.11461985 26.52606122 -22.0084658 26.50878697 -25.90234375 26.48828125 C-25.57234375 29.45828125 -25.24234375 32.42828125 -24.90234375 35.48828125 C-24.24234375 35.48828125 -23.58234375 35.48828125 -22.90234375 35.48828125 C-22.48984375 36.25140625 -22.07734375 37.01453125 -21.65234375 37.80078125 C-19.3879228 41.27828486 -17.82573177 42.13292902 -13.90234375 43.48828125 C-7.04569971 44.54942854 -2.54296143 43.32201614 3.1875 39.484375 C3.81785156 39.15566406 4.44820312 38.82695312 5.09765625 38.48828125 C6.08765625 38.81828125 7.07765625 39.14828125 8.09765625 39.48828125 C8.97265625 41.33203125 8.97265625 41.33203125 9.09765625 43.48828125 C5.52746151 48.84357336 -0.67222683 53.17185482 -6.78515625 55.07421875 C-15.14977969 56.71010452 -23.5372169 55.76576802 -30.83984375 51.3046875 C-35.93230727 47.43046417 -39.19015342 42.64762081 -40.90234375 36.48828125 C-42.29958989 25.80212262 -41.774449 16.18139613 -35.32421875 7.3203125 C-26.25681449 -3.89141034 -12.84584723 -7.22706144 0 0 Z " fill="#09CDC6" transform="translate(727.90234375,216.51171875)"/>
<path d="M0 0 C0.33 26.4 0.66 52.8 1 80 C2.65 80.66 4.3 81.32 6 82 C6 83.65 6 85.3 6 87 C-3.57 87 -13.14 87 -23 87 C-23 85.35 -23 83.7 -23 82 C-20.03 81.505 -20.03 81.505 -17 81 C-17.06117688 72.31587667 -17.13825766 63.63208335 -17.23571491 54.94829082 C-17.28046588 50.91614971 -17.31971128 46.88411073 -17.34643555 42.85180664 C-17.37242182 38.96126837 -17.41279023 35.07112217 -17.46318626 31.18082619 C-17.47988681 29.69570602 -17.49138123 28.21051799 -17.49761391 26.725317 C-17.5072209 24.64678095 -17.53523621 22.56925515 -17.56762695 20.4909668 C-17.57873001 19.30738083 -17.58983307 18.12379486 -17.60127258 16.90434265 C-17.76440817 14.01902137 -17.76440817 14.01902137 -19.33952332 12.15681458 C-21.11247066 10.80538313 -21.11247066 10.80538313 -24 10 C-24 8.02 -24 6.04 -24 4 C-21.64631607 3.51835812 -19.29209845 3.03963352 -16.9375 2.5625 C-16.28072266 2.42779297 -15.62394531 2.29308594 -14.94726562 2.15429688 C-4.2808689 0 -4.2808689 0 0 0 Z " fill="#0FCEC8" transform="translate(565,184)"/>
<path d="M0 0 C0 19.8 0 39.6 0 60 C1.98 60 3.96 60 6 60 C6 62.64 6 65.28 6 68 C1.17619198 68.0246519 -3.64757967 68.04283693 -8.47143555 68.05493164 C-10.11369464 68.05997174 -11.75594923 68.06680378 -13.39819336 68.07543945 C-15.75375479 68.08751926 -18.10925709 68.09323139 -20.46484375 68.09765625 C-21.20339096 68.10281754 -21.94193817 68.10797882 -22.7028656 68.11329651 C-24.46898088 68.1134925 -26.23497146 68.06194719 -28 68 C-29 67 -29 67 -29.0625 63.9375 C-29.041875 62.968125 -29.02125 61.99875 -29 61 C-26.36 60.67 -23.72 60.34 -21 60 C-20.99091529 53.66392933 -21.02817112 47.32934538 -21.09765625 40.99365234 C-21.11582451 38.83844248 -21.12338326 36.683116 -21.12011719 34.52783203 C-21.11726252 31.42909377 -21.15255229 28.33277802 -21.1953125 25.234375 C-21.18621857 24.27070007 -21.17712463 23.30702515 -21.16775513 22.31414795 C-21.22377915 19.73554345 -21.31699422 17.48800425 -22 15 C-24.8992562 12.54946976 -24.8992562 12.54946976 -28 11 C-28.375 7.25 -28.375 7.25 -28 4 C-25.45847565 3.52006844 -22.91678778 3.04103273 -20.375 2.5625 C-19.66214844 2.42779297 -18.94929687 2.29308594 -18.21484375 2.15429688 C-16.14407293 1.76483998 -14.07210227 1.38229722 -12 1 C-10.96101562 0.80277344 -9.92203125 0.60554688 -8.8515625 0.40234375 C-6 0 -6 0 0 0 Z " fill="#0BCDC6" transform="translate(600,89)"/>
<path d="M0 0 C0.66 3.3 1.32 6.6 2 10 C3.0725 8.72125 4.145 7.4425 5.25 6.125 C8.14193877 2.67691916 10.46144141 0.28259426 15.0703125 -0.23046875 C20.77777778 -0.11111111 20.77777778 -0.11111111 23 1 C22.34 6.61 21.68 12.22 21 18 C18.36 17.67 15.72 17.34 13 17 C11.20918784 16.80450703 9.41762237 16.61563124 7.625 16.4375 C6.79226563 16.35371094 5.95953125 16.26992187 5.1015625 16.18359375 C3.01952586 15.97099029 3.01952586 15.97099029 1 16 C1 27.22 1 38.44 1 50 C3.64 50.66 6.28 51.32 9 52 C9 53.98 9 55.96 9 58 C-0.9 58 -10.8 58 -21 58 C-21.33 56.02 -21.66 54.04 -22 52 C-18.535 51.505 -18.535 51.505 -15 51 C-14.96992986 45.66045586 -14.98533847 40.32369689 -15.04272461 34.984375 C-15.05585607 33.16866716 -15.05660604 31.35282552 -15.04467773 29.53710938 C-15.02967061 26.9244404 -15.05932964 24.3154892 -15.09765625 21.703125 C-15.08340103 20.89256653 -15.06914581 20.08200806 -15.05445862 19.24688721 C-15.1132155 16.95447324 -15.21755335 15.1578639 -16 13 C-18.24131919 11.0232132 -20.19764132 10.18491791 -23 9 C-23 7.35 -23 5.7 -23 4 C-15.55771041 1.99630665 -7.73773172 0 0 0 Z " fill="#0ACDC7" transform="translate(659,213)"/>
<path d="M0 0 C0.73046875 1.84765625 0.73046875 1.84765625 1.1875 4.0625 C1.34605469 4.79597656 1.50460937 5.52945313 1.66796875 6.28515625 C1.77753906 6.85105469 1.88710938 7.41695312 2 8 C2.45890625 7.51789063 2.9178125 7.03578125 3.390625 6.5390625 C4.00421875 5.90742188 4.6178125 5.27578125 5.25 4.625 C5.85328125 3.99851563 6.4565625 3.37203125 7.078125 2.7265625 C10.2724696 -0.14315359 12.30792943 -0.96420325 16.625 -1.1875 C20 -1 20 -1 22 0 C21.67 5.28 21.34 10.56 21 16 C18 17 18 17 14.8125 16.0625 C10.32224342 14.81111702 5.35020304 13.82489848 1 16 C1 27.22 1 38.44 1 50 C3.31 50.66 5.62 51.32 8 52 C8 53.65 8 55.3 8 57 C-1.9 57 -11.8 57 -22 57 C-22 55.35 -22 53.7 -22 52 C-18.535 51.505 -18.535 51.505 -15 51 C-15.33 37.8 -15.66 24.6 -16 11 C-17.98 10.01 -19.96 9.02 -22 8 C-22.875 5.3125 -22.875 5.3125 -23 3 C-6.81176471 -2.27058824 -6.81176471 -2.27058824 0 0 Z " fill="#06CCC6" transform="translate(764,214)"/>
<path d="M0 0 C4.73755927 2.80744253 7.07248345 5.81862349 8.52734375 11.01953125 C10.20027714 21.56868971 10.53567365 33.53061614 5 43 C2.38572454 45.61427546 -0.1197823 47.98119782 -3.953125 48.01953125 C-4.71109375 47.95121094 -5.4690625 47.88289063 -6.25 47.8125 C-6.99765625 47.75707031 -7.7453125 47.70164063 -8.515625 47.64453125 C-12.13971736 46.70431861 -14.17479908 45.49509144 -17 43 C-17.84444586 39.87856971 -17.6995238 36.85435993 -17.5859375 33.640625 C-17.57744781 32.73624695 -17.56895813 31.8318689 -17.56021118 30.90008545 C-17.52666085 28.01550443 -17.45138076 25.13373379 -17.375 22.25 C-17.34490241 20.29300916 -17.31752624 18.33597445 -17.29296875 16.37890625 C-17.22686431 11.58485698 -17.12333286 6.79290469 -17 2 C-15.72104855 1.50138308 -14.440253 1.00749441 -13.15869141 0.515625 C-12.4456485 0.24008789 -11.73260559 -0.03544922 -10.99795532 -0.31933594 C-7.16399412 -1.62549107 -3.82077143 -1.13208042 0 0 Z " fill="#F7FDFC" transform="translate(656,101)"/>
<path d="M0 0 C4.75475716 2.64153175 6.25955439 5.95270772 8 11 C9.80107917 20.0679333 10.63617321 30.64794265 6 39 C3.50750318 42.12481165 1.01117228 43.76334266 -2.9375 44.6875 C-7.34463221 43.69814379 -10.31991156 41.64050755 -13 38 C-15.80531602 31.83610616 -16.47178811 26.01776499 -16.375 19.3125 C-16.38660156 18.49716797 -16.39820313 17.68183594 -16.41015625 16.84179688 C-16.37987835 10.59950228 -15.15009285 6.33438652 -10.8125 1.625 C-7.08483484 -0.52876209 -4.20833483 -0.82800908 0 0 Z " fill="#FAFDFD" transform="translate(608,220)"/>
<path d="M0 0 C15 0 15 0 21 3 C25.2933227 7.75746569 26.16940167 10.38273158 26.25 16.75 C26.27578125 17.96171875 26.3015625 19.1734375 26.328125 20.421875 C25.8275837 25.88015873 24.05407492 28.99175442 20.125 32.75 C12.96793424 37.90308734 9.60551757 37 0 37 C0 24.79 0 12.58 0 0 Z " fill="#FBFDFD" transform="translate(375,71)"/>
<path d="M0 0 C4.18669017 2.13788434 6.02601279 4.99319498 7.5 9.45703125 C8.99853653 17.0784944 9.05145903 25.77286019 6 33 C4.5 34.9375 4.5 34.9375 3 36 C2.34 36 1.68 36 1 36 C1 36.66 1 37.32 1 38 C-0.36922039 38.2799295 -1.74610538 38.52245963 -3.125 38.75 C-3.89070313 38.88921875 -4.65640625 39.0284375 -5.4453125 39.171875 C-9.28066433 38.9138391 -11.10526743 37.48007638 -14 35 C-14.5534942 32.16944255 -14.71010733 30.20215294 -14.5859375 27.390625 C-14.57744781 26.66381531 -14.56895813 25.93700562 -14.56021118 25.18817139 C-14.52670601 22.87391879 -14.45144932 20.56319295 -14.375 18.25 C-14.34489589 16.67843587 -14.31752083 15.10681692 -14.29296875 13.53515625 C-14.2269265 9.68875187 -14.12343921 5.84497309 -14 2 C-9.29650736 -0.48924449 -5.26425382 -0.66657759 0 0 Z " fill="#F7FCFC" transform="translate(513,225)"/>
<path d="M0 0 C2.35928115 1.67871928 3.95667429 3.34068113 4.8125 6.1328125 C5.24141728 9.0816188 5.54570175 11.3773465 4.1875 14.09375 C3.5275 14.09375 2.8675 14.09375 2.1875 14.09375 C1.919375 14.733125 1.65125 15.3725 1.375 16.03125 C0.1875 18.09375 0.1875 18.09375 -2.8125 19.09375 C-8.52531183 19.65959041 -12.89096434 19.33476129 -17.8125 16.09375 C-20.26567946 12.4139808 -20.63050789 9.36742389 -19.8125 5.09375 C-14.7108274 -1.61130542 -7.74377998 -3.87188999 0 0 Z " fill="#0DCEC7" transform="translate(596.8125,56.90625)"/>
<path d="M0 0 C3.54956512 2.77792053 4.97142344 4.94284688 7 9 C7.33 12.3 7.66 15.6 8 19 C-0.25 19 -8.5 19 -17 19 C-15.87063078 8.83567698 -15.87063078 8.83567698 -13.625 5.5625 C-13.20476563 4.92441406 -12.78453125 4.28632812 -12.3515625 3.62890625 C-8.9764499 -0.43878726 -4.9629775 -0.95963823 0 0 Z " fill="#F5FCFB" transform="translate(729,95)"/>
<path d="M0 0 C4.714611 2.67875625 6.38579838 5.90252121 8 11 C8 13.64 8 16.28 8 19 C0.08 19 -7.84 19 -16 19 C-14.87063078 8.83567698 -14.87063078 8.83567698 -12.625 5.5625 C-12.20476562 4.92441406 -11.78453125 4.28632812 -11.3515625 3.62890625 C-7.99566477 -0.41562945 -4.97306903 -0.51445542 0 0 Z " fill="#F6FCFC" transform="translate(472,95)"/>
<path d="M0 0 C2.84174695 2.69218132 4.54091481 5.09777589 5 9 C5 11.31 5 13.62 5 16 C-1.27 16 -7.54 16 -14 16 C-12.85214008 5.6692607 -12.85214008 5.6692607 -9 1 C-5.87139505 -0.56430248 -3.44397075 -0.35627284 0 0 Z " fill="#F4FCFC" transform="translate(716,220)"/>
<path d="M0 0 C21.12 0 42.24 0 64 0 C64 0.33 64 0.66 64 1 C44.2 1.33 24.4 1.66 4 2 C4.66 3.32 5.32 4.64 6 6 C6.66 6 7.32 6 8 6 C9.37535339 7.97133986 10.70211044 9.97681922 12 12 C12.7425 12.9075 13.485 13.815 14.25 14.75 C16 17 16 17 16 19 C16.99 19.33 17.98 19.66 19 20 C21.25 22.375 21.25 22.375 23 25 C22.67 25.99 22.34 26.98 22 28 C15.91482392 21.02609545 9.89712081 14.02377978 4.25 6.6875 C3.60538818 5.85279175 3.60538818 5.85279175 2.94775391 5.0012207 C0 1.13115222 0 1.13115222 0 0 Z " fill="#09B7B3" transform="translate(105,105)"/>
<path d="M0 0 C1.98 0.99 1.98 0.99 4 2 C4 2.66 4 3.32 4 4 C4.66 4 5.32 4 6 4 C7.37535339 5.97133986 8.70211044 7.97681922 10 10 C10.7425 10.9075 11.485 11.815 12.25 12.75 C14 15 14 15 14 17 C14.99 17.33 15.98 17.66 17 18 C19.25 20.375 19.25 20.375 21 23 C20.67 23.99 20.34 24.98 20 26 C0 3.16666667 0 3.16666667 0 0 Z " fill="#2ABDB7" transform="translate(107,107)"/>
<path d="M0 0 C2.475 0.495 2.475 0.495 5 1 C4.67 2.65 4.34 4.3 4 6 C-3.59 6 -11.18 6 -19 6 C-19 5.67 -19 5.34 -19 5 C-13.06 5 -7.12 5 -1 5 C-0.67 3.35 -0.34 1.7 0 0 Z " fill="#29CCC4" transform="translate(431,265)"/>
<path d="M0 0 C0 0.99 0 1.98 0 3 C-0.66 3 -1.32 3 -2 3 C-2 3.99 -2 4.98 -2 6 C0.97 6 3.94 6 7 6 C7 6.33 7 6.66 7 7 C3.04 7 -0.92 7 -5 7 C-5 5.35 -5 3.7 -5 2 C-3.35 1.34 -1.7 0.68 0 0 Z " fill="#06BFB9" transform="translate(350,263)"/>
<path d="M0 0 C0.66 0 1.32 0 2 0 C2.31453125 0.59167969 2.6290625 1.18335938 2.953125 1.79296875 C5.33264624 6.18648236 7.70038047 10.21154795 11 14 C5.77522055 12.0648965 2.98363417 7.47545126 0 3 C0 2.01 0 1.02 0 0 Z " fill="#30BDB8" transform="translate(696,138)"/>
<path d="M0 0 C3.11020134 2.54471018 4.00133026 5.15896252 5 9 C5.125 11.875 5.125 11.875 5 14 C1.34133706 9.67612562 0 5.65076098 0 0 Z " fill="#4BC5C0" transform="translate(52,238)"/>
<path d="M0 0 C1 3 1 3 1 6 C3.97 6.33 6.94 6.66 10 7 C10 7.33 10 7.66 10 8 C5.71 8 1.42 8 -3 8 C-1 2 -1 2 0 0 Z " fill="#3FC2BE" transform="translate(223,271)"/>
<path d="M0 0 C0.33 0.99 0.66 1.98 1 3 C0.566875 3.37125 0.13375 3.7425 -0.3125 4.125 C-2.46152985 6.51281095 -3.64757984 9.1019568 -5 12 C-5.33 12 -5.66 12 -6 12 C-6.375 9.9375 -6.375 9.9375 -6 7 C-4.20822891 4.46427718 -2.15761879 2.22825512 0 0 Z " fill="#2ECCC7" transform="translate(584,220)"/>
<path d="M0 0 C0.33 0.99 0.66 1.98 1 3 C0.29423828 3.58201172 0.29423828 3.58201172 -0.42578125 4.17578125 C-2.40992887 6.47502924 -2.68533163 8.21311811 -3.1875 11.1875 C-3.34605469 12.08855469 -3.50460937 12.98960938 -3.66796875 13.91796875 C-3.83232422 14.94857422 -3.83232422 14.94857422 -4 16 C-4.33 16 -4.66 16 -5 16 C-5.29209024 10.35292212 -5.0637112 6.94907193 -2 2 C-1.34 1.34 -0.68 0.68 0 0 Z " fill="#0FBAB4" transform="translate(18,114)"/>
<path d="M0 0 C0 3 0 3 -2 6 C-2.66 6 -3.32 6 -4 6 C-4.66 7.98 -5.32 9.96 -6 12 C-6.66 12 -7.32 12 -8 12 C-6.49087042 7.01987239 -3.44338151 3.75740058 0 0 Z " fill="#28C8C1" transform="translate(706,94)"/>
<path d="M0 0 C0 0.66 0 1.32 0 2 C-0.99 2.33 -1.98 2.66 -3 3 C-4.67067133 4.99665598 -6.33752986 6.99651034 -8 9 C-8.66 9 -9.32 9 -10 9 C-8.5124715 4.98367305 -4.56813239 0 0 0 Z " fill="#1EC4BE" transform="translate(21,9)"/>
<path d="M0 0 C3.48133831 1.39253532 4.47886033 2.63176216 6 6 C6.66 6.33 7.32 6.66 8 7 C8 7.66 8 8.32 8 9 C4.20620942 7.50958227 2.31656242 5.30937488 0 2 C0 1.34 0 0.68 0 0 Z " fill="#39C1BB" transform="translate(187,266)"/>
<path d="M0 0 C0.99 0.33 1.98 0.66 3 1 C3.33 1.99 3.66 2.98 4 4 C4.99 4.66 5.98 5.32 7 6 C6.67 7.32 6.34 8.64 6 10 C4.99421411 8.71283353 3.99553202 7.42011342 3 6.125 C2.443125 5.40570313 1.88625 4.68640625 1.3125 3.9453125 C0 2 0 2 0 0 Z " fill="#37C6C0" transform="translate(162,231)"/>
<path d="M0 0 C1.98 0.99 1.98 0.99 4 2 C4 5.3 4 8.6 4 12 C3.67 12 3.34 12 3 12 C2.86722656 11.38511719 2.73445312 10.77023438 2.59765625 10.13671875 C2.42105469 9.32847656 2.24445312 8.52023438 2.0625 7.6875 C1.88847656 6.88699219 1.71445312 6.08648437 1.53515625 5.26171875 C1.00113841 2.854599 1.00113841 2.854599 0 0 Z " fill="#56D0CB" transform="translate(613,225)"/>
<path d="M0 0 C0.99 0.33 1.98 0.66 3 1 C2.649375 1.61875 2.29875 2.2375 1.9375 2.875 C1.628125 3.57625 1.31875 4.2775 1 5 C1.33 5.66 1.66 6.32 2 7 C0.68 6.67 -0.64 6.34 -2 6 C-2 4.35 -2 2.7 -2 1 C-1.34 0.67 -0.68 0.34 0 0 Z " fill="#32C9C2" transform="translate(638,216)"/>
<path d="M0 0 C3.99996286 1.33332095 4.83782337 3.4957827 7 7 C6.67 7.66 6.34 8.32 6 9 C4.99406757 7.8803014 3.9954151 6.7540588 3 5.625 C2.443125 4.99851563 1.88625 4.37203125 1.3125 3.7265625 C0 2 0 2 0 0 Z " fill="#34C0BA" transform="translate(128,133)"/>
</svg>
